<svg xmlns="http://www.w3.org/2000/svg" viewBox="0 0 18.44 15.67"><defs><style>.cls-1{fill:#393f4b;}</style></defs><title>group</title><g id="Calque_2" data-name="Calque 2"><g id="Calque_1-2" data-name="Calque 1"><path class="cls-1" d="M7.37,11.88c2.38,0,4.31-2.41,4.31-5.38S9.75,1.13,7.37,1.13s-4.3,2.4-4.3,5.37S5,11.88,7.37,11.88Zm0-9.83c1.87,0,3.38,2,3.38,4.45S9.24,11,7.37,11,4,9,4,6.5,5.51,2.05,7.37,2.05Z"/><path class="cls-1" d="M11.94.92c1.54,0,2.79,1.67,2.79,3.73,0,1.85-1,3.38-2.35,3.67a7.76,7.76,0,0,1-.33,1c2-.08,3.61-2.11,3.61-4.63S14,0,11.94,0A3.26,3.26,0,0,0,9.75.9a6.74,6.74,0,0,1,.75.57A2.29,2.29,0,0,1,11.94.92Z"/><path class="cls-1" d="M16.25,9.13l-1.07-.5a5.68,5.68,0,0,1-.71.68c2.57,1.24,3,1.31,3,1.85s-.62.62-1.24.62h-2a3.2,3.2,0,0,1,1,.92h1c.53,0,2.16,0,2.16-1.54C18.44,10.15,17.75,9.83,16.25,9.13Z"/><path class="cls-1" d="M12.3,11.82l-1.41-.67a5.83,5.83,0,0,1-.73.68c3.1,1.49,3.67,1.57,3.67,2.2s-.72.72-1.44.72h-10c-.72,0-1.44,0-1.44-.72s.57-.71,3.67-2.2a5.83,5.83,0,0,1-.73-.68l-1.41.67C.72,12.62,0,13,0,14c0,1.64,1.71,1.64,2.36,1.64h10c.65,0,2.36,0,2.36-1.64C14.75,13,14,12.62,12.3,11.82Z"/></g></g></svg>