<svg xmlns="http://www.w3.org/2000/svg" width="150.192" height="150" viewBox="0 0 150.192 150"><defs><style>.cls-1{fill:#fff;}</style></defs><title>Fichier 1</title><g id="Calque_2" data-name="Calque 2"><g id="Calque_1-2" data-name="Calque 1"><path class="cls-1" d="M89.057,1.113V11.6A64.809,64.809,0,1,1,65.5,10.793V.417a75.1,75.1,0,1,0,23.554.7Z"/><path class="cls-1" d="M114,73.72v41.2c-1.633,2.192-2.181,2.74-8.551,7.126V76.335q0-4.383-2.083-6.748a7.454,7.454,0,0,0-5.9-2.368,7.968,7.968,0,0,0-6.079,2.472,9.507,9.507,0,0,0-2.33,6.786V97.532H80.506V0a74.256,74.256,0,0,1,8.551,1.113V65.947q4.522-6.5,11.659-6.5,6.216,0,9.752,3.848T114,73.72Z"/><path class="cls-1" d="M36.417,97.383V49.077H58.086q8.349,0,12.628,4.279a10.877,10.877,0,0,1,3.243,8V61.5q0,7.178-6.9,10.765Q76.648,75.509,76.649,84v.138a11.326,11.326,0,0,1-4.831,9.8q-4.832,3.453-13.042,3.451Zm29.053-34.5V62.74a5.29,5.29,0,0,0-2.209-4.519,10.474,10.474,0,0,0-6.28-1.622H44.767V69.434H56.36a11.739,11.739,0,0,0,6.66-1.656A5.531,5.531,0,0,0,65.47,62.879ZM68.161,83.1q0-6.486-9.937-6.487H44.767v13.25H58.845a11.971,11.971,0,0,0,6.866-1.691,5.615,5.615,0,0,0,2.45-4.934Z"/></g></g></svg>